<?xml version="1.0" ?><svg enable-background="new 0 0 32 32" version="1.1" viewBox="0 0 32 32" xml:space="preserve" xmlns="http://www.w3.org/2000/svg" xmlns:xlink="http://www.w3.org/1999/xlink"><g id="style_1_copy_3"><g><g><path d="M16,0C7.163,0,0,7.163,0,16c0,8.836,7.163,16,16,16s16-7.164,16-16C32,7.163,24.837,0,16,0z" fill="#CCCCCC"/></g><g><path d="M16,0.734C7.569,0.734,0.734,7.569,0.734,16c0,8.431,6.835,15.266,15.266,15.266S31.266,24.431,31.266,16     C31.266,7.569,24.431,0.734,16,0.734z" fill="#FFFFFF"/></g><g><path d="M16,1.359C7.914,1.359,1.359,7.914,1.359,16c0,8.086,6.555,14.641,14.641,14.641S30.641,24.086,30.641,16     C30.641,7.914,24.086,1.359,16,1.359z" fill="#333333"/></g><g><defs><path d="M16,0C7.163,0,0,7.163,0,16c0,8.836,7.163,16,16,16s16-7.164,16-16C32,7.163,24.837,0,16,0z" id="SVGID_107_"/></defs><clipPath id="SVGID_6_"><use overflow="visible" xlink:href="#SVGID_107_"/></clipPath></g><g opacity="0.5"><g><path d="M16,30.058l-0.028-0.5H16c0.637,0,1.276-0.045,1.901-0.133l0.07,0.496      C17.323,30.012,16.66,30.058,16,30.058z M13.972,29.912c-0.659-0.095-1.318-0.239-1.958-0.429l0.142-0.479      c0.617,0.182,1.252,0.321,1.888,0.413L13.972,29.912z M19.931,29.5l-0.139-0.48c0.616-0.179,1.227-0.405,1.813-0.672      l0.207,0.455C21.204,29.079,20.571,29.314,19.931,29.5z M10.137,28.779c-0.602-0.275-1.192-0.6-1.756-0.964l0.271-0.42      c0.544,0.351,1.113,0.663,1.693,0.929L10.137,28.779z M23.574,27.846l-0.27-0.422c0.541-0.347,1.062-0.735,1.55-1.155      l0.326,0.379C24.676,27.083,24.136,27.485,23.574,27.846z M6.778,26.611c-0.505-0.439-0.981-0.917-1.415-1.42l0.378-0.326      c0.419,0.484,0.878,0.945,1.365,1.369L6.778,26.611z M26.602,25.231l-0.377-0.328c0.424-0.486,0.815-1.006,1.163-1.544      l0.42,0.271C27.447,24.188,27.041,24.728,26.602,25.231z M4.162,23.585c-0.36-0.56-0.683-1.152-0.96-1.76l0.455-0.207      c0.267,0.586,0.579,1.156,0.926,1.697L4.162,23.585z M28.774,21.876l-0.453-0.209c0.27-0.585,0.498-1.194,0.68-1.81L29.481,20      C29.292,20.638,29.055,21.27,28.774,21.876z M2.503,19.945c-0.187-0.64-0.329-1.299-0.422-1.96l0.495-0.07      c0.09,0.638,0.227,1.273,0.407,1.89L2.503,19.945z M29.91,18.041l-0.494-0.072c0.092-0.629,0.14-1.278,0.143-1.929l0.5,0.002      C30.056,16.716,30.006,17.389,29.91,18.041z M2.442,15.986l-0.5-0.001c0.001-0.669,0.049-1.342,0.143-1.999l0.495,0.071      C2.489,14.691,2.443,15.34,2.442,15.986z M29.427,14.112c-0.089-0.641-0.225-1.277-0.403-1.891l0.48-0.14      c0.185,0.637,0.326,1.297,0.419,1.961L29.427,14.112z M2.991,12.169l-0.479-0.141c0.188-0.641,0.425-1.273,0.703-1.878      l0.454,0.208C3.4,10.942,3.172,11.552,2.991,12.169z M28.354,10.406c-0.266-0.586-0.576-1.158-0.924-1.7l0.422-0.27      c0.359,0.562,0.682,1.155,0.957,1.763L28.354,10.406z M4.596,8.664l-0.42-0.271c0.361-0.56,0.766-1.099,1.203-1.604l0.378,0.328      C5.335,7.604,4.944,8.124,4.596,8.664z M26.276,7.155c-0.419-0.487-0.878-0.948-1.362-1.372l0.328-0.377      c0.503,0.439,0.979,0.917,1.413,1.422L26.276,7.155z M7.125,5.75L6.797,5.373C7.3,4.937,7.84,4.532,8.402,4.17l0.271,0.421      C8.131,4.939,7.61,5.33,7.125,5.75z M23.371,4.619c-0.543-0.352-1.112-0.666-1.692-0.934l0.209-0.454      c0.603,0.277,1.192,0.603,1.755,0.968L23.371,4.619z M10.37,3.663l-0.208-0.454c0.605-0.278,1.238-0.514,1.88-0.701l0.141,0.479      C11.563,3.168,10.953,3.396,10.37,3.663z M19.871,3.002c-0.617-0.184-1.252-0.324-1.889-0.417l0.072-0.495      c0.66,0.097,1.319,0.242,1.959,0.432L19.871,3.002z M14.071,2.578l-0.07-0.495C14.659,1.989,15.332,1.942,16,1.942l0.056,0.5H16      C15.355,2.442,14.707,2.488,14.071,2.578z" fill="#FFFFFF"/></g></g></g></g><g id="style_1_copy_2"><g><path d="M13.69,24.903h3.679v-8.904h2.454l0.325-3.068h-2.779l0.004-1.536c0-0.8,0.076-1.229,1.224-1.229h1.534    V7.097h-2.455c-2.949,0-3.986,1.489-3.986,3.992v1.842h-1.838v3.069h1.838V24.903z" fill="#FFFFFF"/></g></g></svg>