<?xml version="1.0" ?><svg enable-background="new 0 0 32 32" version="1.1" viewBox="0 0 32 32" xml:space="preserve" xmlns="http://www.w3.org/2000/svg" xmlns:xlink="http://www.w3.org/1999/xlink"><g id="style_1_copy_3"><g><g><path d="M16,0C7.163,0,0,7.163,0,16c0,8.836,7.163,16,16,16s16-7.164,16-16C32,7.163,24.837,0,16,0z" fill="#CCCCCC"/></g><g><path d="M16,0.734C7.569,0.734,0.734,7.569,0.734,16c0,8.431,6.835,15.266,15.266,15.266S31.266,24.431,31.266,16     C31.266,7.569,24.431,0.734,16,0.734z" fill="#FFFFFF"/></g><g><path d="M16,1.359C7.914,1.359,1.359,7.914,1.359,16c0,8.086,6.555,14.641,14.641,14.641S30.641,24.086,30.641,16     C30.641,7.914,24.086,1.359,16,1.359z" fill="#333333"/></g><g><defs><path d="M16,0C7.163,0,0,7.163,0,16c0,8.836,7.163,16,16,16s16-7.164,16-16C32,7.163,24.837,0,16,0z" id="SVGID_133_"/></defs><clipPath id="SVGID_6_"><use overflow="visible" xlink:href="#SVGID_133_"/></clipPath></g><g opacity="0.5"><g><path d="M16,30.058l-0.022-0.418l0.002-0.081c0.657-0.001,1.297-0.046,1.922-0.134l0.07,0.496      C17.323,30.012,16.66,30.058,16,30.058z M13.975,29.913c-0.661-0.095-1.32-0.239-1.961-0.429l0.143-0.479      c0.617,0.182,1.253,0.321,1.889,0.413L13.975,29.913z M19.932,29.501l-0.139-0.48c0.616-0.179,1.227-0.405,1.813-0.672      l0.207,0.455C21.205,29.08,20.572,29.315,19.932,29.501z M10.137,28.781c-0.603-0.276-1.193-0.601-1.756-0.965l0.271-0.42      c0.543,0.351,1.112,0.664,1.693,0.93L10.137,28.781z M23.573,27.845l-0.27-0.422c0.543-0.348,1.064-0.736,1.55-1.156      l0.326,0.379C24.677,27.081,24.136,27.484,23.573,27.845z M6.779,26.612c-0.505-0.438-0.98-0.916-1.416-1.42l0.379-0.326      c0.419,0.484,0.879,0.945,1.365,1.369L6.779,26.612z M26.602,25.231l-0.377-0.328c0.424-0.486,0.815-1.006,1.163-1.544      l0.42,0.271C27.447,24.188,27.041,24.727,26.602,25.231z M4.162,23.585c-0.36-0.559-0.683-1.151-0.96-1.76l0.455-0.207      c0.267,0.587,0.578,1.157,0.925,1.697L4.162,23.585z M28.773,21.876l-0.453-0.209c0.27-0.585,0.498-1.194,0.68-1.81L29.48,20      C29.291,20.637,29.054,21.269,28.773,21.876z M2.504,19.946c-0.188-0.642-0.329-1.301-0.422-1.96l0.494-0.07      c0.09,0.636,0.228,1.271,0.408,1.89L2.504,19.946z M29.909,18.042l-0.494-0.072c0.092-0.629,0.14-1.278,0.143-1.929l0.5,0.002      C30.055,16.716,30.005,17.389,29.909,18.042z M2.441,15.988l-0.5-0.002c0.002-0.672,0.051-1.345,0.145-1.999l0.494,0.07      C2.49,14.689,2.443,15.339,2.441,15.988z M29.427,14.111c-0.089-0.638-0.224-1.274-0.402-1.891l0.48-0.139      c0.185,0.64,0.325,1.299,0.418,1.961L29.427,14.111z M2.992,12.168l-0.48-0.141c0.188-0.637,0.424-1.269,0.702-1.877      l0.455,0.207C3.4,10.945,3.173,11.553,2.992,12.168z M28.354,10.408c-0.266-0.587-0.576-1.159-0.923-1.699l0.42-0.27      c0.36,0.561,0.683,1.153,0.958,1.762L28.354,10.408z M4.598,8.662l-0.42-0.27C4.536,7.834,4.94,7.295,5.38,6.789l0.377,0.328      C5.334,7.604,4.943,8.125,4.598,8.662z M26.276,7.156c-0.419-0.486-0.877-0.948-1.362-1.372l0.328-0.377      c0.504,0.44,0.979,0.919,1.413,1.423L26.276,7.156z M7.125,5.751L6.797,5.372c0.505-0.437,1.045-0.841,1.604-1.201l0.271,0.42      C8.132,4.939,7.611,5.329,7.125,5.751z M23.371,4.619c-0.542-0.352-1.111-0.666-1.692-0.935l0.209-0.453      c0.604,0.277,1.193,0.604,1.755,0.968L23.371,4.619z M10.368,3.663l-0.207-0.455c0.607-0.277,1.24-0.513,1.88-0.701l0.141,0.48      C11.564,3.168,10.954,3.395,10.368,3.663z M19.871,3.003c-0.616-0.183-1.251-0.323-1.889-0.417l0.072-0.494      c0.661,0.097,1.32,0.242,1.959,0.433L19.871,3.003z M14.071,2.578l-0.07-0.494C14.655,1.99,15.328,1.942,16,1.942l0.057,0.5H16      C15.352,2.442,14.703,2.488,14.071,2.578z" fill="#FFFFFF"/></g></g></g></g><g id="style_1_copy_2"><g><path d="M22.057,7.924H9.943c-1.14,0-2.019,0.879-2.019,2.019v12.113c0,1.14,0.879,2.019,2.019,2.019h12.113    c1.14,0,2.019-0.879,2.019-2.019V9.943C24.076,8.803,23.196,7.924,22.057,7.924z M16.012,12.827c1.791,0,3.243,1.407,3.243,3.142    c0,1.735-1.452,3.142-3.243,3.142c-1.79,0-3.242-1.408-3.242-3.142C12.77,14.234,14.222,12.827,16.012,12.827z M22.057,21.552    c0,0.354-0.151,0.505-0.505,0.505H10.448c-0.353,0-0.505-0.151-0.505-0.505v-7.066l1.258,0.274    c-0.135,0.439-0.208,0.903-0.208,1.385c0,2.684,2.248,4.863,5.018,4.863c2.772,0,5.019-2.178,5.019-4.863    c0-0.482-0.073-0.946-0.208-1.385l1.234-0.274V21.552z M22.057,12.467c0,0.279-0.226,0.505-0.505,0.505h-2.019    c-0.279,0-0.505-0.226-0.505-0.505v-2.019c0-0.279,0.226-0.505,0.505-0.505h2.019c0.279,0,0.505,0.226,0.505,0.505V12.467z" fill="#FFFFFF"/></g></g></svg>