<?xml version="1.0" encoding="utf-8"?>
<!-- Generator: Adobe Illustrator 18.1.1, SVG Export Plug-In . SVG Version: 6.00 Build 0)  -->
<svg version="1.1" id="Layer_1" xmlns="http://www.w3.org/2000/svg" xmlns:xlink="http://www.w3.org/1999/xlink" x="0px" y="0px"
	 viewBox="0 0 203.7 38.3" enable-background="new 0 0 203.7 38.3" xml:space="preserve">
<g id="XMLID_1_">
	<g>
		<path fill="#FFFFFF" d="M150.5,15.6c1.9,3.6,5.4,6.8,8.5,9.3c0.7,0.6,1.4,1.1,2.1,1.6c0.2-2.3-0.7-5-1.8-7c-1-1.8-2.4-3.5-4-4.8
			c-0.9-0.8-1.9-1.7-3-2C150,11.9,149.5,13.6,150.5,15.6z M52,10.6c4.1,1,1.8,5,0.3,7.1c-3.1,4.3-6.9,7.9-11.2,10.8
			c0.4,1.1,1.2,2.1,2.7,2.6c4.4,1.5,9.7-0.5,13.5-2.6c4-2.2,7.4-5.2,10.8-8.1c0.8-0.7,1.8,0.2,1.9,1C70.8,30.2,81,32,87.8,29
			c6-2.6,11.4-8.4,11.7-15.2c0.2-3.6-1.1-7.6-4.1-9.9c-2.8-2.1-6.9-2.5-10-0.8c-2.8,1.6-4.3,4.9-3.8,8.1c0.3,2,1.5,3.9,3.6,4.4
			c1.4,0.4,2.9,0.1,3.8-1.2c0.9-1.5-0.2-3.6-2.2-2.5c-0.6,0.3-1.9-0.7-1.2-1.2c2.5-2.2,6.4,0.5,5.9,3.6c-0.8,4.6-6.4,4-9.1,1.7
			c-5.8-5-2.5-14.6,4.8-15.8c6.6-1.1,12,3.4,13.8,9.2c1.9-7.1,9.7-12,16.7-8.1c5.8,3.2,7.4,14.1-0.3,16.2c-3,0.8-6.6-1-6.8-4.3
			c-0.2-3.2,3.4-4.4,5.7-2.6c0.7,0.6,0.3,1.6-0.6,1.1c-1-0.4-1.8-0.2-2.5,0.6c-0.8,1-0.6,1.8,0.6,2.3c0.5,1.1,1.3,1.4,2.3,1
			c0.7-0.2,1.3-0.5,1.9-0.9c1.3-0.9,2.2-2.4,2.5-3.9c0.8-3.4-0.8-7.2-4.2-8.5C108.6-0.3,102.4,7,102.5,14
			c0.1,7.4,6.5,13.8,13.3,15.8c6.8,2,15.5-1.1,16.3-9c0.1-0.8,1-0.7,1.5-0.3c6.1,5.4,14.5,12.8,23.4,10.8c2.1-0.5,3.3-1.7,3.8-3.2
			c-4.7-3.2-8.9-7.3-12-12.2c-0.8-1.2-1.9-2.9-0.9-4.4c0.8-1.1,2.3-1.1,3.5-0.9c3.4,0.7,6.5,3.9,8.4,6.6c2.1,3,3.9,6.8,3.3,10.5
			c0,0,0,0,0,0c2.4,1.5,4.9,2.7,7.5,3.7c9.3,3.4,19.2,3.1,28.6,0.1c0.5-0.2,1.3,0.9,0.7,1.1c-10.1,4-21.7,3.8-31.7-0.5
			c-1.9-0.8-3.7-1.8-5.5-2.8c-1.1,2.8-4,3.9-7.2,4c-8.4,0.3-15.6-5.3-21.7-10.6c-1.9,9.1-12.9,11.3-20.6,7.8
			c-5.5-2.5-10.4-7.4-12.1-13.2c-1.8,7.3-8.7,13.2-16,14.7c-7,1.5-14.7-2.1-16.8-9c-6.6,5.7-15.6,12.7-24.6,9.8
			c-2.2-0.7-3.5-1.9-4.2-3.4c-11,6.5-24.7,8-37,3.2c-0.6-0.2-0.9-1.4,0-1.1c12.4,4.1,25.8,2.4,36.4-4.2c-0.6-4.2,2.1-9.6,4.8-12.5
			C45.6,12.8,48.8,9.9,52,10.6z M51,15.8c0.7-1,1.8-3.2-0.3-3.2c-0.9,0-2,1-2.7,1.4c-1.8,1.3-3.3,2.9-4.6,4.8
			c-1.2,1.8-2.6,4.8-2.8,7.5C44.7,23.4,48.2,19.9,51,15.8z"/>
	</g>
	<g>
	</g>
</g>
</svg>
